<?xml version="1.0" ?><!DOCTYPE svg  PUBLIC '-//W3C//DTD SVG 1.1//EN'  'http://www.w3.org/Graphics/SVG/1.1/DTD/svg11.dtd'><svg enable-background="new 0 0 64 64" height="64px" id="Layer_1" version="1.1" viewBox="0 0 64 64" width="64px" xml:space="preserve" xmlns="http://www.w3.org/2000/svg" xmlns:xlink="http://www.w3.org/1999/xlink"><path d="M43.081,47.878c-0.003-0.001-0.003-0.004-0.004-0.005c-0.9-1.118-2.508-2.872-2.885-3.281  c-0.049-0.053-0.072-0.078-0.075-0.081c-0.725-1.291-1.363-2.896-1.525-4.703c0.001-1.479,0.908-2.951,0.908-2.951l-0.022-0.007  c0.441-0.819,0.707-1.715,0.707-2.666c0-3.135-2.627-5.753-6.176-6.484V10.84c0-1.537,0.328-1.995,0.521-2.135  c0.032-0.014,0.059-0.037,0.091-0.053c0.026-0.01,0.046-0.014,0.046-0.014l-0.001-0.017c0.429-0.246,0.729-0.688,0.729-1.217V1.509  c0-0.789-0.64-1.429-1.429-1.429h-3.931c-0.789,0-1.429,0.641-1.429,1.429v5.895c0,0.537,0.309,0.987,0.748,1.229l-0.006,0.014  c0,0,0.027,0.007,0.063,0.025c0.017,0.008,0.03,0.022,0.047,0.029c0.184,0.135,0.532,0.607,0.532,2.272v16.726  c-3.551,0.731-6.177,3.349-6.177,6.484c0,0.955,0.265,1.854,0.706,2.673l-0.019,0.014c0,0,1.015,2.1,0.677,4.167  c-0.304,1.408-0.87,2.637-1.474,3.669c-0.287,0.324-2.067,2.322-2.779,3.168c-0.004,0.004-0.003,0.007-0.006,0.012  c-1.558,1.654-2.479,3.677-2.479,5.856c0,5.61,6.07,10.178,13.561,10.178c7.487,0,13.561-4.567,13.561-10.178  C45.561,51.556,44.643,49.535,43.081,47.878z" fill="#241F20"/></svg>