<?xml version="1.0" ?><!DOCTYPE svg  PUBLIC '-//W3C//DTD SVG 1.1//EN'  'http://www.w3.org/Graphics/SVG/1.1/DTD/svg11.dtd'><svg enable-background="new 0 0 64 64" height="64px" id="Layer_1" version="1.1" viewBox="0 0 64 64" width="64px" xml:space="preserve" xmlns="http://www.w3.org/2000/svg" xmlns:xlink="http://www.w3.org/1999/xlink"><g><g><g><path d="M18.148,1.829c-7.881,4.339-10.256,15.144-5.3,24.142c3.591,6.522,10.046,10.312,16.334,10.235     l7.992,5.919l4.809-2.649l-0.669-9.952c3.407-5.278,3.664-12.746,0.072-19.267C36.429,1.256,26.03-2.513,18.148,1.829z      M34.75,31.885c-6.519,3.591-15.19,0.348-19.367-7.237C11.206,17.062,13.101,8,19.619,4.41c6.518-3.589,15.191-0.348,19.37,7.238     C43.165,19.234,41.268,28.294,34.75,31.885z" fill="#241F20"/></g><path d="M43.117,41.574l10.434,18.946c0.408,0.746,0.136,1.693-0.611,2.104l-2.104,1.157    c-0.747,0.412-1.694,0.138-2.104-0.609L38.299,44.229L43.117,41.574z" fill="#241F20"/></g><g><path d="M32.754,45.738c-1.139,0.75-3.644,2.624-3.772,6.809c-0.032,2.19,1.042,5.005,3.772,6.807    c1.415-1.901,2.266-4.253,2.266-6.807S34.169,47.642,32.754,45.738z" fill="#241F20"/><g><path d="M17.381,52.561c-0.11-3.617-1.996-5.503-3.241-6.432c-1.245,1.829-1.975,4.038-1.975,6.418     s0.729,4.589,1.975,6.418C16.466,57.165,17.412,54.599,17.381,52.561z" fill="#241F20"/><path d="M26.498,56.29c-1.259-3.486-0.66-6.682,0.929-9.425c1.164-1.832,2.422-2.864,3.083-3.398     c-1.921-1.466-4.313-2.347-6.917-2.347c-2.8,0-5.363,1.011-7.352,2.685c0.702,0.59,1.722,1.54,2.696,3.074     c1.588,2.745,2.188,5.94,0.929,9.427c-0.953,2.639-2.782,4.322-3.619,4.986c1.987,1.671,4.547,2.682,7.346,2.682     c2.619,0,5.026-0.894,6.954-2.376C30.493,61.564,27.744,59.743,26.498,56.29z" fill="#241F20"/></g></g></g></svg>